<svg width="240" height="240" viewBox="0 0 240 240" xmlns="http://www.w3.org/2000/svg" xmlns:xlink="http://www.w3.org/1999/xlink" xmlns:sketch="http://www.bohemiancoding.com/sketch/ns"><title>Artboard 1</title><defs><radialGradient cx="47.881%" fx="47.881%" fy="50%" r="100%" id="b"><stop stop-color="#FA8D28" offset="0%"/><stop stop-color="#F7661C" offset="100%"/></radialGradient><path id="a" d="M0 0h240v240h-240z"/></defs><g sketch:type="MSArtboardGroup" fill="none" fill-rule="evenodd"><g><use sketch:type="MSShapeGroup" xlink:href="#a"/><use fill="url(#b)" xlink:href="#a"/></g><path d="M37.381 119.473v-16.284h-9.381v36.875h9.381v-16.225h.059l12.154 16.225h11.21l-14.927-18.88 14.573-17.995h-10.738l-12.272 16.284h-.059zm36.816-15.576c0-3.186-2.006-4.897-5.369-4.897-3.304 0-5.369 1.711-5.369 4.897 0 3.127 2.065 4.838 5.369 4.838 3.363 0 5.369-1.711 5.369-4.838zm-.826 36.167v-28.084l-9.086 1.121v26.963h9.086zm29.972-1.357l-1.357-6.903c-2.124 1.298-4.484 2.065-7.257 2.065-4.248 0-7.021-2.714-7.021-7.611 0-4.425 2.419-7.493 6.785-7.493 2.419 0 5.074.885 7.257 2.124l1.77-6.844c-2.478-1.416-6.136-2.301-9.971-2.301-9.204 0-15.104 5.723-15.104 14.809 0 9.322 5.782 14.396 14.868 14.396 3.953 0 7.729-.826 10.03-2.242zm14.219-11.505l8.555 12.862h10.325l-10.148-14.396 10.089-13.039h-10.443l-8.378 11.8h-.059v-24.485l-9.086 1.121v38.999h9.086v-12.862h.059zm49.619-.944c0-9.204-6.254-14.514-14.514-14.514-8.319 0-14.927 5.369-14.927 14.691 0 9.322 6.313 14.514 14.573 14.514 8.201 0 14.868-5.487 14.868-14.691zm-9.027.059c0 4.72-1.947 7.67-5.664 7.67-3.717 0-5.723-2.95-5.723-7.611 0-4.72 1.947-7.729 5.664-7.729 3.717 0 5.723 3.068 5.723 7.67zm24.662-6.195h11.328v19.942h9.086v-19.942h7.08l.177-7.139h-7.611v-2.183c0-2.655.826-4.012 3.186-4.012 1.829 0 3.186.531 4.543 1.062 0 .059 1.77-7.434 1.77-7.493-1.475-.59-4.13-1.357-7.493-1.357-6.844 0-10.502 3.422-10.738 11.387l-.059 2.596h-11.682v-1.593c0-2.655.826-4.012 3.186-4.012 1.829 0 3.186.531 4.602 1.062 0 .059 1.711-7.434 1.711-7.493-1.475-.59-4.071-1.357-7.434-1.357-6.903 0-10.502 3.422-10.738 11.387l-.059 1.77-4.425 1.298-.236 5.782 4.72.354v19.883h9.086v-19.942z" fill="#fff" sketch:type="MSShapeGroup"/></g></svg>