<svg width="128" height="128" viewBox="0 0 128 128" xmlns="http://www.w3.org/2000/svg"><path d="M41.655 113.561c-13.872 0-26.785-4.08-37.655-11.074 1.922.228 3.877.344 5.86.344 11.509 0 22.101-3.941 30.508-10.551-10.749-.199-19.821-7.325-22.947-17.118 1.5.288 3.039.442 4.621.442 2.241 0 4.411-.301 6.472-.864-11.238-2.264-19.705-12.227-19.705-24.17l.002-.31c3.312 1.846 7.1 2.955 11.127 3.083-6.591-4.42-10.928-11.965-10.928-20.516 0-4.517 1.211-8.751 3.326-12.392 12.116 14.913 30.216 24.726 50.632 25.754-.419-1.804-.636-3.685-.636-5.617 0-13.612 10.999-24.649 24.565-24.649 7.065 0 13.449 2.994 17.93 7.784 5.595-1.106 10.853-3.157 15.599-5.982-1.834 5.756-5.729 10.586-10.801 13.637 4.969-.596 9.703-1.921 14.109-3.881-3.293 4.943-7.458 9.285-12.258 12.76.047 1.057.071 2.12.071 3.189 0 32.572-24.708 70.132-69.891 70.132" fill="#2f353a" fill-rule="evenodd"/></svg>