<?xml version="1.0" encoding="UTF-8" standalone="no"?>
<svg width="128px" height="128px" viewBox="0 0 128 128" version="1.1" xmlns="http://www.w3.org/2000/svg" xmlns:xlink="http://www.w3.org/1999/xlink">
    <g id="128" fill="#2f353a">
        <path d="M63.388,5 C30.041,5 3,32.035 3,65.387 C3,92.068 20.303,114.704 44.297,122.689 C47.315,123.248 48.423,121.379 48.423,119.784 C48.423,118.344 48.367,113.587 48.341,108.541 C31.541,112.194 27.996,101.416 27.996,101.416 C25.249,94.436 21.291,92.58 21.291,92.58 C15.812,88.832 21.704,88.909 21.704,88.909 C27.768,89.334 30.961,95.132 30.961,95.132 C36.347,104.364 45.088,101.695 48.534,100.152 C49.076,96.25 50.641,93.584 52.368,92.077 C38.955,90.55 24.855,85.372 24.855,62.233 C24.855,55.64 27.214,50.253 31.077,46.024 C30.45,44.502 28.383,38.361 31.662,30.043 C31.662,30.043 36.733,28.42 48.273,36.233 C53.09,34.895 58.256,34.224 63.388,34.201 C68.52,34.224 73.69,34.895 78.516,36.233 C90.042,28.42 95.106,30.043 95.106,30.043 C98.393,38.361 96.325,44.502 95.698,46.024 C99.57,50.253 101.913,55.64 101.913,62.233 C101.913,85.427 87.786,90.534 74.339,92.029 C76.505,93.903 78.435,97.578 78.435,103.212 C78.435,111.291 78.365,117.794 78.365,119.784 C78.365,121.391 79.452,123.274 82.513,122.681 C106.494,114.687 123.775,92.059 123.775,65.387 C123.775,32.035 96.738,5 63.388,5"></path>
        <path d="M25.6172697,92.023791 C25.4842697,92.324791 25.0122697,92.413791 24.5822697,92.207791 C24.1442697,92.010791 23.8982697,91.601791 24.0402697,91.300791 C24.1702697,90.991791 24.6432697,90.906791 25.0802697,91.111791 C25.5192697,91.309791 25.7692697,91.722791 25.6172697,92.023791"></path>
        <path d="M28.5876883,94.6744458 C28.2996883,94.9414458 27.7366883,94.8174458 27.3546883,94.3954458 C26.9596883,93.9744458 26.8856883,93.4114458 27.1776883,93.1404458 C27.4746883,92.8734458 28.0206883,92.9984458 28.4166883,93.4194458 C28.8116883,93.8454458 28.8886883,94.4044458 28.5876883,94.6744458"></path>
        <path d="M30.625508,98.0656252 C30.255508,98.3226252 29.650508,98.0816252 29.276508,97.5446252 C28.906508,97.0076252 28.906508,96.3636252 29.284508,96.1056252 C29.659508,95.8476252 30.255508,96.0796252 30.634508,96.6126252 C31.003508,97.1576252 31.003508,97.8026252 30.625508,98.0656252"></path>
        <path d="M34.0718971,101.99309 C33.7408971,102.35809 33.0358971,102.26009 32.5198971,101.76209 C31.9918971,101.27509 31.8448971,100.58409 32.1768971,100.21909 C32.5118971,99.8530904 33.2208971,99.9560904 33.7408971,100.45009 C34.2648971,100.93609 34.4248971,101.63209 34.0718971,101.99309"></path>
        <path d="M38.5260206,103.318958 C38.3800206,103.791958 37.7010206,104.006958 37.0170206,103.805958 C36.3340206,103.598958 35.8870206,103.044958 36.0250206,102.566958 C36.1670206,102.090958 36.8490206,101.866958 37.5380206,102.081958 C38.2200206,102.287958 38.6680206,102.837958 38.5260206,103.318958"></path>
        <path d="M43.595,103.881357 C43.612,104.379357 43.032,104.792357 42.314,104.800357 C41.592,104.817357 41.008,104.414357 41,103.924357 C41,103.421357 41.567,103.012357 42.289,103.000357 C43.007,102.986357 43.595,103.386357 43.595,103.881357"></path>
        <path d="M48.5747044,103.690474 C48.6607044,104.176474 48.1617044,104.675474 47.4487044,104.807474 C46.7477044,104.936474 46.0987044,104.636474 46.0097044,104.154474 C45.9227044,103.656474 46.4307044,103.157474 47.1307044,103.028474 C47.8447044,102.904474 48.4837044,103.196474 48.5747044,103.690474"></path>
    </g>
</svg>