<?xml version="1.0" encoding="UTF-8" standalone="no"?>
<svg width="128px" height="128px" viewBox="0 0 128 128" version="1.1" xmlns="http://www.w3.org/2000/svg" xmlns:xlink="http://www.w3.org/1999/xlink">
    <defs></defs>
    <g id="Page-1" stroke="none" stroke-width="1" fill="none" fill-rule="evenodd">
        <g id="128" fill="#2f353a">
            <path d="M41.6554745,113.560538 C27.7832117,113.560538 14.8709489,109.480135 4,102.486538 C5.92175182,102.714179 7.87722628,102.830637 9.85985401,102.830637 C21.3684672,102.830637 31.960438,98.8899821 40.3674453,92.279157 C29.6182482,92.0800807 20.5464234,84.9537668 17.4207299,75.1607982 C18.920292,75.4486457 20.4592701,75.6028969 22.0420438,75.6028969 C24.2826277,75.6028969 26.4527007,75.3018655 28.5141606,74.7384753 C17.2762044,72.4743677 8.80919708,62.5117668 8.80919708,50.5689507 C8.80919708,50.4652377 8.80919708,50.3619641 8.81094891,50.25913 C12.1232117,52.1053094 15.9106569,53.2140717 19.9376642,53.3419552 C13.3464234,48.9218475 9.00934307,41.3771659 9.00934307,32.8256771 C9.00934307,28.3084484 10.2207299,24.0742332 12.3351825,20.4337309 C24.4508029,35.3464305 42.5510949,45.1596143 62.9668613,46.1875157 C62.5481752,44.3835247 62.3305109,42.5021883 62.3305109,40.5703139 C62.3305109,26.9579821 73.3293431,15.9217758 86.8959124,15.9217758 C93.9610219,15.9217758 100.345109,18.9153901 104.826277,23.7059641 C110.421606,22.600278 115.678832,20.54887 120.424964,17.7244484 C118.590803,23.4800807 114.696058,28.3106457 109.624088,31.3613901 C114.593139,30.7654798 119.327445,29.4405022 123.732847,27.4800628 C120.439416,32.42313 116.274453,36.764574 111.475328,40.2398386 C111.522628,41.2967444 111.546277,42.3598027 111.546277,43.428574 C111.546277,76.0010493 86.8385401,113.560538 41.6554745,113.560538"></path>
        </g>
    </g>
</svg>