<?xml version="1.0" encoding="UTF-8" standalone="no"?><svg viewBox="0 0 37 37" xmlns="http://www.w3.org/2000/svg"><path d="M5.2.7h26.5c2.5 0 4.6 2.1 4.6 4.6v26.5c0 2.5-2.1 4.6-4.6 4.6H5.2c-2.5 0-4.6-2.1-4.6-4.6V5.2C.7 2.7 2.7.7 5.2.7zm21.5 3.9c-.9 0-1.6.7-1.6 1.6V10c0 .9.7 1.6 1.6 1.6h4c.9 0 1.6-.7 1.6-1.6V6.2c0-.9-.7-1.6-1.6-1.6h-4zm5.6 11.1h-3.1c.3 1 .5 2 .5 3.1 0 5.9-5 10.7-11.1 10.7S7.5 24.7 7.5 18.8c0-1.1.2-2.1.5-3.1H4.7v15.1c0 .8.6 1.4 1.4 1.4H31c.8 0 1.4-.6 1.4-1.4V15.7h-.1zm-13.8-4.2c-4 0-7.2 3.1-7.2 6.9 0 3.8 3.2 6.9 7.2 6.9s7.2-3.1 7.2-6.9c0-3.8-3.2-6.9-7.2-6.9z" fill="#000" fill-rule="evenodd"/></svg>