<?xml version="1.0" encoding="UTF-8" standalone="no"?>
<svg width="240px" height="240px" viewBox="0 0 240 240" version="1.1" xmlns="http://www.w3.org/2000/svg" xmlns:xlink="http://www.w3.org/1999/xlink" xmlns:sketch="http://www.bohemiancoding.com/sketch/ns">
    <!-- Generator: Sketch 3.0.2 (7799) - http://www.bohemiancoding.com/sketch -->
    <title>Artboard 1</title>
    <description>Created with Sketch.</description>
    <defs>
        <radialGradient cx="47.8808582%" cy="50%" fx="47.8808582%" fy="50%" r="100%" id="radialGradient-1">
            <stop stop-color="#FA8D28" offset="0%"></stop>
            <stop stop-color="#F7661C" offset="100%"></stop>
        </radialGradient>
        <rect id="path-2" x="0" y="0" width="240" height="240"></rect>
    </defs>
    <g id="Page-1" stroke="none" stroke-width="1" fill="none" fill-rule="evenodd" sketch:type="MSPage">
        <g id="Artboard-1" sketch:type="MSArtboardGroup">
            <g id="Rectangle-1">
                <use fill="none" sketch:type="MSShapeGroup" xlink:href="#path-2"></use>
                <use fill="url(#radialGradient-1)" fill-rule="evenodd" xlink:href="#path-2"></use>
            </g>
            <path d="M37.381,119.473 L37.381,103.189 L28,103.189 L28,140.064 L37.381,140.064 L37.381,123.839 L37.44,123.839 L49.594,140.064 L60.804,140.064 L45.877,121.184 L60.45,103.189 L49.712,103.189 L37.44,119.473 L37.381,119.473 Z M74.197,103.897 C74.197,100.711 72.191,99 68.828,99 C65.524,99 63.459,100.711 63.459,103.897 C63.459,107.024 65.524,108.735 68.828,108.735 C72.191,108.735 74.197,107.024 74.197,103.897 Z M73.371,140.064 L73.371,111.98 L64.285,113.101 L64.285,140.064 L73.371,140.064 Z M103.343,138.707 L101.986,131.804 C99.862,133.102 97.502,133.869 94.729,133.869 C90.481,133.869 87.708,131.155 87.708,126.258 C87.708,121.833 90.127,118.765 94.493,118.765 C96.912,118.765 99.567,119.65 101.75,120.889 L103.52,114.045 C101.042,112.629 97.384,111.744 93.549,111.744 C84.345,111.744 78.445,117.467 78.445,126.553 C78.445,135.875 84.227,140.949 93.313,140.949 C97.266,140.949 101.042,140.123 103.343,138.707 Z M117.562,127.202 L126.117,140.064 L136.442,140.064 L126.294,125.668 L136.383,112.629 L125.94,112.629 L117.562,124.429 L117.503,124.429 L117.503,99.944 L108.417,101.065 L108.417,140.064 L117.503,140.064 L117.503,127.202 L117.562,127.202 Z M167.181,126.258 C167.181,117.054 160.927,111.744 152.667,111.744 C144.348,111.744 137.74,117.113 137.74,126.435 C137.74,135.757 144.053,140.949 152.313,140.949 C160.514,140.949 167.181,135.462 167.181,126.258 Z M158.154,126.317 C158.154,131.037 156.207,133.987 152.49,133.987 C148.773,133.987 146.767,131.037 146.767,126.376 C146.767,121.656 148.714,118.647 152.431,118.647 C156.148,118.647 158.154,121.715 158.154,126.317 Z M182.816,120.122 L194.144,120.122 L194.144,140.064 L203.23,140.064 L203.23,120.122 L210.31,120.122 L210.487,112.983 L202.876,112.983 L202.876,110.8 C202.876,108.145 203.702,106.788 206.062,106.788 C207.891,106.788 209.248,107.319 210.605,107.85 C210.605,107.909 212.375,100.416 212.375,100.357 C210.9,99.767 208.245,99 204.882,99 C198.038,99 194.38,102.422 194.144,110.387 L194.085,112.983 L182.403,112.983 L182.403,111.39 C182.403,108.735 183.229,107.378 185.589,107.378 C187.418,107.378 188.775,107.909 190.191,108.44 C190.191,108.499 191.902,101.006 191.902,100.947 C190.427,100.357 187.831,99.59 184.468,99.59 C177.565,99.59 173.966,103.012 173.73,110.977 L173.671,112.747 L169.246,114.045 L169.01,119.827 L173.73,120.181 L173.73,140.064 L182.816,140.064 L182.816,120.122 Z" id="Kickoff" fill="#FFFFFF" sketch:type="MSShapeGroup"></path>
        </g>
    </g>
</svg>