<?xml version="1.0" encoding="UTF-8" standalone="no"?>
<svg width="18px" height="7px" viewBox="0 0 18 7" version="1.1" xmlns="http://www.w3.org/2000/svg" xmlns:xlink="http://www.w3.org/1999/xlink" xmlns:sketch="http://www.bohemiancoding.com/sketch/ns">
    <!-- Generator: Sketch 3.3.3 (12081) - http://www.bohemiancoding.com/sketch -->
    <title>Shape</title>
    <desc>Created with Sketch.</desc>
    <defs></defs>
    <g id="Page-1" stroke="none" stroke-width="1" fill="none" fill-rule="evenodd" sketch:type="MSPage">
        <g id="npm" sketch:type="MSLayerGroup" fill="#CB3837">
            <path d="M0,0 L18,0 L18,6 L9,6 L9,7 L5,7 L5,6 L0,6 L0,0 L0,0 Z M1,5 L3,5 L3,2 L4,2 L4,5 L5,5 L5,1 L1,1 L1,5 L1,5 Z M6,1 L6,6 L8,6 L8,5 L10,5 L10,1 L6,1 L6,1 Z M8,2 L9,2 L9,4 L8,4 L8,2 L8,2 Z M11,1 L11,5 L13,5 L13,2 L14,2 L14,5 L15,5 L15,2 L16,2 L16,5 L17,5 L17,1 L11,1 Z" id="Shape" sketch:type="MSShapeGroup"></path>
        </g>
    </g>
</svg>
